Patient4_TMGait_0pt3_02_right_02_GRF.mot
version=1
nRows=39
nColumns=19
inDegrees=no
endheader
time	F1x	F1y	F1z	M1x	M1y	M1z	F2x	F2y	F2z	M2x	M2y	M2z	EC1x	EC1y	EC1z	EC2x	EC2y	EC2z
2.24	-9.4743	791.9544	54.7848	-294.9987	-54.1377	752.7164	-8.4883	-2.5431	-2.9567	0.59653	4.5543	-4.6126	-0.0592	0.0182	-0.0073	-0.0462	0.0165	0.9585
2.2598	-10.7204	815.2139	55.9774	-303.4011	-55.5255	772.9164	-5.9409	-1.0449	-1.9826	0.65084	3.1505	-2.423	-0.0592	0.0182	-0.0073	-0.0462	0.0165	0.9585
2.2796	-11.689	841.0232	57.2421	-312.7729	-56.7884	794.8227	-3.716	0.23759	-1.1566	0.69804	1.9448	-0.55062	-0.0592	0.0182	-0.0073	-0.0462	0.0165	0.9585
2.2994	-12.1273	866.5979	58.412	-322.095	-57.6764	815.828	-1.9823	1.2424	-0.52776	0.74098	1.0199	0.90396	-0.0592	0.0182	-0.0073	-0.0462	0.0165	0.9585
2.3191	-11.8518	888.5724	59.3391	-330.1189	-57.9962	832.8637	-0.76366	1.965	-0.094586	0.77903	0.38108	1.9372	-0.0592	0.0182	-0.0073	-0.0462	0.0165	0.9585
2.3389	-10.7896	903.5546	59.9072	-335.5761	-57.6335	842.9063	0.00026435	2.4266	0.17124	0.80614	-0.01032	2.5929	-0.0592	0.0182	-0.0073	-0.0462	0.0165	0.9585
2.3587	-8.9646	908.8188	60.0196	-337.4419	-56.5323	843.5947	0.40772	2.6487	0.3087	0.81056	-0.21204	2.9208	-0.0592	0.0182	-0.0073	-0.0462	0.0165	0.9585
2.3785	-6.4704	902.8868	59.6103	-335.1583	-54.688	833.7312	0.56122	2.6354	0.35815	0.77398	-0.28413	2.9516	-0.0592	0.0182	-0.0073	-0.0462	0.0165	0.9585
2.3983	-3.4186	885.8684	58.6647	-328.7662	-52.1451	813.5561	0.55141	2.364	0.35618	0.67026	-0.27859	2.6814	-0.0592	0.0182	-0.0073	-0.0462	0.0165	0.9585
2.4181	0.1017	859.4683	57.2281	-318.905	-48.9869	784.727	0.4548	1.7871	0.33177	0.46798	-0.23726	2.077	-0.0592	0.0182	-0.0073	-0.0462	0.0165	0.9585
2.4379	4.0146	826.6649	55.4168	-306.6847	-45.3471	750.015	0.33114	0.84298	0.3076	0.13435	-0.19462	1.0865	-0.0592	0.0182	-0.0073	-0.0462	0.0165	0.9585
2.4576	8.2555	791.2089	53.4167	-293.4989	-41.4123	712.8495	0.22921	-0.52279	0.29999	-0.35609	-0.18068	-0.3376	-0.0592	0.0182	-0.0073	-0.0462	0.0165	0.9585
2.4774	12.771	757.0727	51.4544	-280.822	-37.3983	676.8131	0.18936	-2.3207	0.32156	-1.01	-0.22254	-2.1995	-0.0592	0.0182	-0.0073	-0.0462	0.0165	0.9585
2.4972	17.5055	727.9098	49.748	-270.0086	-33.5122	645.156	0.24244	-4.4683	0.38035	-1.7979	-0.33955	-4.4161	-0.0592	0.0182	-0.0073	-0.0462	0.0165	0.9585
2.517	22.4204	706.5393	48.4735	-262.1018	-29.9169	620.3512	0.41397	-6.7276	0.47959	-2.63	-0.54059	-6.749	-0.0592	0.0182	-0.0073	-0.0462	0.0165	0.9585
2.5368	27.4931	694.5056	47.76	-257.6651	-26.7267	603.7361	0.7224	-8.6307	0.61453	-3.3298	-0.82211	-8.727	-0.0592	0.0182	-0.0073	-0.0462	0.0165	0.9585
2.5566	32.675	691.8157	47.6807	-256.6801	-24.022	595.3341	1.171	-9.399	0.7676	-3.6017	-1.1622	-9.5617	-0.0592	0.0182	-0.0073	-0.0462	0.0165	0.9585
2.5764	37.8591	696.8823	48.2442	-258.525	-21.8561	593.8397	1.7363	-7.8781	0.90229	-3.0076	-1.511	-8.0753	-0.0592	0.0182	-0.0073	-0.0462	0.0165	0.9585
2.5961	42.8572	706.7047	49.3882	-262.0428	-20.2682	596.7972	2.3536	-2.5155	0.95984	-0.95984	-1.7799	-2.6735	-0.0592	0.0182	-0.0073	-0.0462	0.0165	0.9585
2.6159	47.3925	717.2814	50.9796	-265.7023	-19.2833	600.9702	2.9007	8.5764	0.85972	3.2514	-1.8353	8.5937	-0.0592	0.0182	-0.0073	-0.0462	0.0165	0.9585
2.6357	51.1439	724.2573	52.8092	-267.8504	-18.8859	602.8628	3.1738	27.4122	0.49505	10.3788	-1.4847	27.8155	-0.0592	0.0182	-0.0073	-0.0462	0.0165	0.9585
2.6555	53.8002	723.6418	54.578	-267.0004	-18.9832	599.2841	2.8669	55.7167	-0.2629	21.0599	-0.47252	56.8037	-0.0592	0.0182	-0.0073	-0.0462	0.0165	0.9585
2.6753	55.1105	712.4268	55.9024	-262.0779	-19.3822	587.8275	1.5093	94.2674	-1.5529	35.57	1.5232	96.4233	-0.0592	0.0182	-0.0073	-0.0462	0.0165	0.9585
2.6951	54.9473	689.0049	56.3634	-252.5723	-19.8041	567.1792	-1.6563	142.1515	-3.5129	53.541	4.9231	145.8145	-0.0592	0.0182	-0.0073	-0.0462	0.0165	0.9585
2.7149	53.3661	653.3223	55.61	-238.5747	-19.9447	537.2162	-7.0536	196.3694	-6.2969	73.806	10.0275	201.9701	-0.0592	0.0182	-0.0073	-0.0462	0.0165	0.9585
2.7346	50.6189	606.8587	53.4904	-220.7383	-19.5734	498.9775	-14.0864	252.3221	-10.0513	94.5851	16.7374	260.1289	-0.0592	0.0182	-0.0073	-0.0462	0.0165	0.9585
2.7544	47.0962	552.3856	50.1165	-200.1623	-18.6051	454.4999	-21.7138	306.1911	-14.629	114.408	24.4864	316.244	-0.0592	0.0182	-0.0073	-0.0462	0.0165	0.9585
2.7742	43.1715	493.2342	45.7782	-178.1089	-17.0932	406.3011	-29.0641	356.3363	-19.5978	132.6565	32.4942	368.5127	-0.0592	0.0182	-0.0073	-0.0462	0.0165	0.9585
2.794	39.1081	432.5273	40.7778	-155.7217	-15.143	356.8075	-35.5171	402.5221	-24.4481	149.27	40.0098	416.5755	-0.0592	0.0182	-0.0073	-0.0462	0.0165	0.9585
2.8138	35.0631	372.8411	35.3939	-133.9136	-12.8824	308.069	-40.656	445.1982	-28.8087	164.4532	46.507	460.7707	-0.0592	0.0182	-0.0073	-0.0462	0.0165	0.9585
2.8336	31.093	316.0844	29.9018	-113.3355	-10.4768	261.6434	-44.2837	485.0072	-32.5774	178.4712	51.8139	501.6579	-0.0592	0.0182	-0.0073	-0.0462	0.0165	0.9585
2.8534	27.1935	263.5251	24.558	-94.3956	-8.1106	218.586	-46.4254	522.3813	-35.8568	191.5011	56.0461	539.6165	-0.0592	0.0182	-0.0073	-0.0462	0.0165	0.9585
2.8731	23.3553	215.9056	19.5821	-77.3108	-5.9507	179.5165	-47.2476	557.4938	-38.7757	203.6308	59.3968	574.7808	-0.0592	0.0182	-0.0073	-0.0462	0.0165	0.9585
2.8929	19.5993	173.5975	15.1427	-62.171	-4.1203	144.7435	-46.9705	590.3702	-41.3553	214.9137	61.973	607.1517	-0.0592	0.0182	-0.0073	-0.0462	0.0165	0.9585
2.9127	15.9852	136.7254	11.3485	-48.99	-2.686	114.3702	-45.8046	620.8655	-43.5034	225.3601	63.7682	636.5837	-0.0592	0.0182	-0.0073	-0.0462	0.0165	0.9585
2.9325	12.5984	105.2393	8.2435	-37.7344	-1.6563	88.3501	-43.9218	648.5996	-45.0649	234.9058	64.7031	662.7276	-0.0592	0.0182	-0.0073	-0.0462	0.0165	0.9585
2.9523	9.5085	78.9398	5.8095	-28.3269	-0.99916	66.5232	-41.4505	672.9783	-45.8759	243.4054	64.6741	685.0413	-0.0592	0.0182	-0.0073	-0.0462	0.0165	0.9585
2.9721	6.7408	57.4616	3.9791	-20.6364	-0.65815	48.6121	-38.4626	693.3121	-45.838	250.6643	63.6187	702.8932	-0.0592	0.0182	-0.0073	-0.0462	0.0165	0.9585
2.9919	4.2941	40.2924	2.6461	-14.4833	-0.55619	34.2262	-34.9957	709.053	-44.9752	256.5117	61.5739	715.7827	-0.0592	0.0182	-0.0073	-0.0462	0.0165	0.9585
